<mxfile host="app.diagrams.net" modified="2024-04-17T12:38:30.677Z" agent="Mozilla/5.0 (Macintosh; Intel Mac OS X 10_15_7) AppleWebKit/537.36 (KHTML, like Gecko) Chrome/123.0.0.0 Safari/537.36" etag="2jBQVJNWb4ddduy4idez" version="23.1.3" type="github">
  <diagram name="Page-1" id="BfhvMVfp2FU4-kGHkCo7">
    <mxGraphModel dx="2474" dy="1521" grid="1" gridSize="10" guides="1" tooltips="1" connect="1" arrows="1" fold="1" page="0" pageScale="1" pageWidth="827" pageHeight="1169" math="0" shadow="0">
      <root>
        <mxCell id="0" />
        <mxCell id="1" parent="0" />
        <mxCell id="59I1SfEEVEgxjEr1d3Ny-1" value="Email DB&lt;br&gt;on local server (docker container)" style="shape=cylinder3;whiteSpace=wrap;html=1;boundedLbl=1;backgroundOutline=1;size=15;" vertex="1" parent="1">
          <mxGeometry x="555" y="540" width="110" height="130" as="geometry" />
        </mxCell>
        <mxCell id="59I1SfEEVEgxjEr1d3Ny-2" value="Azure Static Web App" style="rounded=0;whiteSpace=wrap;html=1;" vertex="1" parent="1">
          <mxGeometry x="-238" y="-40" width="448" height="90" as="geometry" />
        </mxCell>
        <mxCell id="59I1SfEEVEgxjEr1d3Ny-5" value="" style="edgeStyle=orthogonalEdgeStyle;rounded=0;orthogonalLoop=1;jettySize=auto;html=1;" edge="1" parent="1" source="59I1SfEEVEgxjEr1d3Ny-3" target="59I1SfEEVEgxjEr1d3Ny-1">
          <mxGeometry relative="1" as="geometry" />
        </mxCell>
        <mxCell id="59I1SfEEVEgxjEr1d3Ny-3" value="Azure Service Bus" style="rounded=1;whiteSpace=wrap;html=1;" vertex="1" parent="1">
          <mxGeometry x="520" y="365" width="180" height="90" as="geometry" />
        </mxCell>
        <mxCell id="59I1SfEEVEgxjEr1d3Ny-6" value="" style="edgeStyle=orthogonalEdgeStyle;rounded=0;orthogonalLoop=1;jettySize=auto;html=1;exitX=0.5;exitY=1;exitDx=0;exitDy=0;" edge="1" parent="1" source="59I1SfEEVEgxjEr1d3Ny-10" target="59I1SfEEVEgxjEr1d3Ny-3">
          <mxGeometry relative="1" as="geometry">
            <mxPoint x="610" y="60" as="sourcePoint" />
          </mxGeometry>
        </mxCell>
        <mxCell id="59I1SfEEVEgxjEr1d3Ny-7" value="Blazor Web Assembly" style="rounded=0;whiteSpace=wrap;html=1;" vertex="1" parent="1">
          <mxGeometry x="-238" y="50" width="448" height="30" as="geometry" />
        </mxCell>
        <mxCell id="59I1SfEEVEgxjEr1d3Ny-12" value="" style="edgeStyle=orthogonalEdgeStyle;rounded=0;orthogonalLoop=1;jettySize=auto;html=1;" edge="1" parent="1" source="59I1SfEEVEgxjEr1d3Ny-8" target="59I1SfEEVEgxjEr1d3Ny-11">
          <mxGeometry relative="1" as="geometry" />
        </mxCell>
        <mxCell id="59I1SfEEVEgxjEr1d3Ny-8" value="&lt;b&gt;Home&lt;br&gt;&lt;/b&gt;&lt;span style=&quot;background-color: initial;&quot;&gt;&lt;br&gt;- Welcome&lt;br&gt;&lt;/span&gt;- About&lt;span style=&quot;background-color: initial;&quot;&gt;&amp;nbsp;&lt;br&gt;- Portfolio&lt;br&gt;&lt;/span&gt;- Contact" style="rounded=1;whiteSpace=wrap;html=1;align=center;" vertex="1" parent="1">
          <mxGeometry x="-238" y="100" width="448" height="200" as="geometry" />
        </mxCell>
        <mxCell id="59I1SfEEVEgxjEr1d3Ny-10" value="Email opt in" style="rounded=1;whiteSpace=wrap;html=1;" vertex="1" parent="1">
          <mxGeometry x="520" y="220" width="180" height="70" as="geometry" />
        </mxCell>
        <mxCell id="59I1SfEEVEgxjEr1d3Ny-11" value="HTML Email link" style="whiteSpace=wrap;html=1;rounded=1;" vertex="1" parent="1">
          <mxGeometry x="-74" y="440" width="120" height="60" as="geometry" />
        </mxCell>
      </root>
    </mxGraphModel>
  </diagram>
</mxfile>
